<?xml version="1.0" encoding="UTF-8"?>
<svg version="1.1" xmlns="http://www.w3.org/2000/svg" width="496" height="99">
<path d="M0 0 C1.54977539 -0.0609082 1.54977539 -0.0609082 3.13085938 -0.12304688 C10.55980381 -0.15640326 10.55980381 -0.15640326 13.67626953 2.17578125 C15.21236279 3.94470109 16.46801176 5.69006694 17.6875 7.6875 C18.43652275 8.81315089 19.18644612 9.9382033 19.9375 11.0625 C20.515 11.92875 21.0925 12.795 21.6875 13.6875 C22.3475 14.0175 23.0075 14.3475 23.6875 14.6875 C23.914375 14.0275 24.14125 13.3675 24.375 12.6875 C28.7675 2.6475 28.7675 2.6475 32.6875 0.6875 C36.32753111 0.42077184 39.97628599 0.45596282 43.625 0.4375 C44.64013672 0.416875 45.65527344 0.39625 46.70117188 0.375 C47.67505859 0.36984375 48.64894531 0.3646875 49.65234375 0.359375 C50.99220337 0.34535645 50.99220337 0.34535645 52.35913086 0.33105469 C54.6875 0.6875 54.6875 0.6875 56.49487305 2.02099609 C57.6875 3.6875 57.6875 3.6875 57.8046875 6.6796875 C56.69983311 12.37762221 52.9750905 17.07177052 49.8125 21.8125 C48.54399129 23.7524214 47.27575289 25.69251959 46.0078125 27.6328125 C45.44336426 28.48375488 44.87891602 29.33469727 44.29736328 30.21142578 C43.7661084 31.02853027 43.23485352 31.84563477 42.6875 32.6875 C42.10339355 33.51362793 41.51928711 34.33975586 40.91748047 35.19091797 C39.48524781 37.59532952 39.48524781 37.59532952 39.79101562 40.16870117 C40.84579478 43.13225142 42.24618816 45.39672399 44.03125 47.98828125 C44.70027344 48.96474609 45.36929688 49.94121094 46.05859375 50.94726562 C46.76113281 51.95466797 47.46367187 52.96207031 48.1875 54 C48.89003906 55.02673828 49.59257812 56.05347656 50.31640625 57.11132812 C52.94403742 60.94129365 52.94403742 60.94129365 55.6875 64.6875 C56.0175 64.6875 56.3475 64.6875 56.6875 64.6875 C56.68226318 63.69532471 56.67702637 62.70314941 56.67163086 61.6809082 C56.65328532 57.9366143 56.64196205 54.19232421 56.63256836 50.44799805 C56.62759472 48.83926725 56.62081343 47.23054084 56.61206055 45.62182617 C56.57074551 37.82300491 56.57037684 30.02208646 56.94140625 22.23046875 C56.98724854 21.22395264 57.03309082 20.21743652 57.08032227 19.18041992 C57.6875 16.6875 57.6875 16.6875 59.49047852 14.86157227 C62.88807846 13.04591962 66.31275061 13.33441411 70.0625 13.4375 C71.17625 13.44523438 71.17625 13.44523438 72.3125 13.453125 C75.64959903 13.50029248 78.74091394 13.69671359 82.0390625 14.265625 C84.78395008 14.91175373 84.78395008 14.91175373 87.6875 13.6875 C96.91439933 12.90461157 105.02230031 12.90741271 112.6875 18.6875 C116.51584346 22.23486412 119.73835765 25.42620475 120.6875 30.6875 C121.3475 30.6875 122.0075 30.6875 122.6875 30.6875 C122.873125 30.006875 123.05875 29.32625 123.25 28.625 C126.6711655 21.63392266 132.61843106 17.54586266 139.6875 14.6875 C148.06865209 11.89378264 159.68344944 12.58413366 167.609375 16.42578125 C173.81376793 20.1927341 177.44710813 24.20671625 180.6875 30.6875 C180.70167969 29.79546875 180.71585938 28.9034375 180.73046875 27.984375 C180.77816406 26.81390625 180.82585937 25.6434375 180.875 24.4375 C180.90980469 23.27734375 180.94460938 22.1171875 180.98046875 20.921875 C181.6875 17.6875 181.6875 17.6875 183.7421875 15.2890625 C187.43613101 13.28041948 190.53187812 13.16808159 194.625 13.3125 C195.31529297 13.31378906 196.00558594 13.31507812 196.71679688 13.31640625 C200.05292532 13.37332598 202.72999304 13.70279125 205.87890625 14.8359375 C209.3756218 15.89613777 210.43100802 15.15165918 213.6875 13.6875 C216.80078125 13.4921875 216.80078125 13.4921875 220 13.5625 C221.06863281 13.58054687 222.13726562 13.59859375 223.23828125 13.6171875 C224.04652344 13.64039063 224.85476563 13.66359375 225.6875 13.6875 C225.64109375 13.08421875 225.5946875 12.4809375 225.546875 11.859375 C225.51078125 11.06015625 225.4746875 10.2609375 225.4375 9.4375 C225.39109375 8.64859375 225.3446875 7.8596875 225.296875 7.046875 C225.6875 4.6875 225.6875 4.6875 227.171875 2.4140625 C230.73317256 -0.0301821 234.02906038 0.17835679 238.1875 0.3125 C239.32638672 0.31443359 239.32638672 0.31443359 240.48828125 0.31640625 C247.54614977 0.42765111 247.54614977 0.42765111 250.6875 2.6875 C251.89022819 5.09295638 251.78821472 6.63746953 251.75 9.3125 C251.74097656 10.12976562 251.73195313 10.94703125 251.72265625 11.7890625 C251.70525391 12.72878906 251.70525391 12.72878906 251.6875 13.6875 C253.3375 13.6875 254.9875 13.6875 256.6875 13.6875 C256.6875 21.6075 256.6875 29.5275 256.6875 37.6875 C255.0375 37.6875 253.3875 37.6875 251.6875 37.6875 C252.0175 42.6375 252.3475 47.5875 252.6875 52.6875 C254.0075 53.0175 255.3275 53.3475 256.6875 53.6875 C256.6875 61.6075 256.6875 69.5275 256.6875 77.6875 C247.26539003 77.98504031 240.09652301 77.81271329 231.875 73.0625 C225.66116925 66.31605519 225.059854 58.44004964 224.9375 49.625 C224.90785156 48.56861328 224.87820313 47.51222656 224.84765625 46.42382812 C224.77764224 43.84497862 224.72461046 41.26699697 224.6875 38.6875 C223.6975 39.3475 222.7075 40.0075 221.6875 40.6875 C219.82562174 41.1051941 217.94756715 41.45405938 216.0625 41.75 C212.56612912 42.05258826 212.56612912 42.05258826 209.6875 43.6875 C209.55361047 45.54255733 209.48394848 47.40232254 209.44140625 49.26171875 C209.39209961 50.97584961 209.39209961 50.97584961 209.34179688 52.72460938 C209.28109221 55.13858846 209.22374452 57.55265454 209.16992188 59.96679688 C209.13576172 61.11599609 209.10160156 62.26519531 209.06640625 63.44921875 C209.02882202 65.026427 209.02882202 65.026427 208.99047852 66.63549805 C208.66144712 69.9499392 207.99148426 72.62298655 206.6875 75.6875 C202.63394682 78.38986878 199.50844744 78.05497676 194.75 78.0625 C193.93853516 78.08699219 193.12707031 78.11148438 192.29101562 78.13671875 C188.57871849 78.15499093 186.34888823 78.10791733 183.16796875 76.0859375 C181.2351689 72.95469975 181.08393725 70.59843119 180.9375 66.9375 C180.88078125 65.76703125 180.8240625 64.5965625 180.765625 63.390625 C180.72695313 62.05257812 180.72695313 62.05257812 180.6875 60.6875 C180.3471875 61.26757812 180.006875 61.84765625 179.65625 62.4453125 C174.8855579 70.1342471 170.03055696 74.9136169 161.25 77.5625 C150.59290892 80.02860372 141.26014652 78.75846981 131.875 72.9375 C127.77139571 70.02714234 125.25813744 66.99953699 122.6875 62.6875 C122.6875 62.0275 122.6875 61.3675 122.6875 60.6875 C122.0275 60.6875 121.3675 60.6875 120.6875 60.6875 C120.31625 62.0178125 120.31625 62.0178125 119.9375 63.375 C117.38825513 70.1304989 112.9206971 73.47112334 106.6875 76.6875 C98.42593181 79.78558807 92.20281326 78.81632832 83.6875 76.6875 C83.6875 83.9475 83.6875 91.2075 83.6875 98.6875 C75.1075 98.6875 66.5275 98.6875 57.6875 98.6875 C57.1925 88.2925 57.1925 88.2925 56.6875 77.6875 C55.15738281 77.72230469 53.62726563 77.75710937 52.05078125 77.79296875 C50.03386516 77.82111177 48.01693718 77.84841137 46 77.875 C44.99259766 77.90013672 43.98519531 77.92527344 42.94726562 77.95117188 C33.38101294 78.04588725 33.38101294 78.04588725 29.6875 74.6875 C27.73828125 72.0234375 27.73828125 72.0234375 26 69.0625 C23.97013298 65.21761283 23.97013298 65.21761283 20.6875 62.6875 C20.41808594 63.41453125 20.14867187 64.1415625 19.87109375 64.890625 C18.71114944 67.63161552 17.38618973 69.95615374 15.75 72.4375 C15.24597656 73.21609375 14.74195313 73.9946875 14.22265625 74.796875 C12.6875 76.6875 12.6875 76.6875 9.6875 77.6875 C6.5459779 77.93794143 3.40048762 77.91867707 0.25 77.9375 C-0.60916016 77.958125 -1.46832031 77.97875 -2.35351562 78 C-8.70929315 78.03944625 -8.70929315 78.03944625 -11.91015625 76.171875 C-13.3125 74.6875 -13.3125 74.6875 -13.27734375 71.421875 C-12.47249257 65.00003955 -8.46476086 60.14149312 -4.875 54.9375 C-3.4997549 52.90208618 -2.12599395 50.86566859 -0.75390625 48.828125 C-0.14232666 47.93641602 0.46925293 47.04470703 1.09936523 46.12597656 C3.84975657 42.28361505 3.84975657 42.28361505 4.54882812 37.80639648 C3.35177471 34.86160438 1.68622954 32.41848615 -0.09375 29.78515625 C-0.86077758 28.63613479 -1.62770148 27.48704411 -2.39453125 26.33789062 C-3.6033925 24.54129979 -4.81485425 22.7465225 -6.02880859 20.95336914 C-7.20314655 19.21428963 -8.36755721 17.46886995 -9.53125 15.72265625 C-10.5821582 14.16623413 -10.5821582 14.16623413 -11.65429688 12.57836914 C-13.27003515 9.76153214 -14.20851767 7.92661637 -14.3125 4.6875 C-11.3858356 -1.26234034 -5.84219675 -0.01081221 0 0 Z M86.4375 38.625 C83.82353908 41.70573965 83.37760812 44.69764207 83.6875 48.6875 C84.97014098 51.87525608 84.97014098 51.87525608 87.6875 53.6875 C91.31989813 53.8591367 91.31989813 53.8591367 94.6875 52.6875 C97.22337563 48.88368656 97.28342661 46.14763825 96.6875 41.6875 C95.14658006 39.17336747 94.01475296 38.80497542 91.25 37.8125 C88.67643202 37.50324832 88.67643202 37.50324832 86.4375 38.625 Z " fill="#050404" transform="translate(239.3125,0.3125)"/>
<path d="M0 0 C0.81855469 0.00386719 1.63710937 0.00773437 2.48046875 0.01171875 C3.67349609 0.00591797 3.67349609 0.00591797 4.890625 0 C5.67566406 0.00128906 6.46070313 0.00257812 7.26953125 0.00390625 C8.3361499 0.00559814 8.3361499 0.00559814 9.42431641 0.00732422 C12.58601975 0.17560126 15.72111212 0.68895352 18.85546875 1.13671875 C19.84546875 8.06671875 19.84546875 8.06671875 20.85546875 15.13671875 C21.84546875 14.80671875 22.83546875 14.47671875 23.85546875 14.13671875 C33.38103255 13.38985578 41.15126679 13.64835266 48.81640625 19.6796875 C56.11251037 26.40626451 59.00721423 34.36221662 59.85546875 44.13671875 C59.9738524 54.30455898 57.76423248 63.97783595 50.69921875 71.6015625 C43.78805282 77.35598667 35.73184099 79.80093708 26.85546875 79.13671875 C24.20076967 78.65545751 21.5822374 78.09832185 18.95703125 77.4765625 C16.80492221 76.91854973 16.80492221 76.91854973 14.85546875 78.13671875 C11.88272992 78.31415228 8.95492444 78.4143073 5.98046875 78.44921875 C4.75650391 78.49272461 4.75650391 78.49272461 3.5078125 78.53710938 C-0.22263152 78.57666547 -2.46618569 78.5661976 -5.66796875 76.5390625 C-7.59399425 73.40544958 -7.74814301 71.04642469 -7.89453125 67.38671875 C-7.95125 66.21625 -8.00796875 65.04578125 -8.06640625 63.83984375 C-8.0921875 62.9478125 -8.11796875 62.05578125 -8.14453125 61.13671875 C-8.47324219 61.71679688 -8.80195313 62.296875 -9.140625 62.89453125 C-14.37594165 71.49236835 -20.92593325 76.15994323 -30.6875 78.6640625 C-40.11629155 80.47786819 -49.61569401 78.59224202 -57.80078125 73.4765625 C-65.51554437 67.21474643 -69.02242988 59.47085153 -70.14453125 49.69921875 C-70.54549132 39.45651149 -68.17771721 29.8245086 -61.14453125 22.13671875 C-51.67671564 14.24687241 -42.17019377 13.19120417 -30.26611328 13.88525391 C-25.57657194 14.44109137 -21.94047472 16.45311118 -18.14453125 19.13671875 C-17.21640625 19.73484375 -16.28828125 20.33296875 -15.33203125 20.94921875 C-13.29011166 22.99113834 -12.0042803 24.82714552 -10.5078125 27.2734375 C-10.06348877 27.99619873 -9.61916504 28.71895996 -9.16137695 29.46362305 C-8.82581787 30.01574463 -8.49025879 30.56786621 -8.14453125 31.13671875 C-8.10694702 29.78139038 -8.10694702 29.78139038 -8.06860352 28.39868164 C-7.97365808 25.05707595 -7.87441504 21.71565623 -7.7722168 18.37426758 C-7.72881495 16.92607635 -7.68714381 15.47783221 -7.6472168 14.02954102 C-7.58964063 11.95182316 -7.52591097 9.87437302 -7.4609375 7.796875 C-7.42427979 6.54527588 -7.38762207 5.29367676 -7.34985352 4.00415039 C-6.98064231 -1.15207501 -4.6207017 0.00766286 0 0 Z M21.60546875 39.57421875 C19.36551081 42.85415716 19.41532016 45.12860698 19.421875 49.015625 C19.95964498 51.64633761 20.68092647 52.58347426 22.85546875 54.13671875 C27.90111877 53.94534391 27.90111877 53.94534391 31.85546875 51.13671875 C32.57367665 46.81076883 32.60523762 43.23459459 30.10546875 39.57421875 C26.9048391 37.52937203 24.8060984 37.52937203 21.60546875 39.57421875 Z " fill="#070707" transform="translate(170.14453125,-0.13671875)"/>
<path d="M0 0 C0.96292969 -0.01998047 1.92585937 -0.03996094 2.91796875 -0.06054688 C3.84222656 -0.05990234 4.76648438 -0.05925781 5.71875 -0.05859375 C6.9862207 -0.06137329 6.9862207 -0.06137329 8.27929688 -0.06420898 C10.5 0.4375 10.5 0.4375 12.22583008 2.1953125 C13.5131861 4.46070391 14.14824717 6.26512872 14.66796875 8.80859375 C14.83876953 9.63037109 15.00957031 10.45214844 15.18554688 11.29882812 C15.35119141 12.14896484 15.51683594 12.99910156 15.6875 13.875 C15.86474609 14.72126953 16.04199219 15.56753906 16.22460938 16.43945312 C17.04516367 20.48519768 17.74718802 24.28644604 17.5 28.4375 C18.16 28.4375 18.82 28.4375 19.5 28.4375 C19.62632813 27.28765625 19.75265625 26.1378125 19.8828125 24.953125 C20.42754142 20.61440692 21.31904245 16.42745169 22.375 12.1875 C22.53613281 11.49398438 22.69726562 10.80046875 22.86328125 10.0859375 C23.81722573 6.22579005 24.72881958 3.31719401 27.5 0.4375 C29.79663086 -0.08007812 29.79663086 -0.08007812 32.46484375 -0.09375 C33.42970703 -0.09890625 34.39457031 -0.1040625 35.38867188 -0.109375 C36.39478516 -0.09390625 37.40089844 -0.0784375 38.4375 -0.0625 C39.94086914 -0.08570312 39.94086914 -0.08570312 41.47460938 -0.109375 C48.55644654 -0.07158001 48.55644654 -0.07158001 52.01953125 1.796875 C54.38430854 6.01478911 55.25431355 10.48460361 56.25 15.1875 C56.47042969 16.17105469 56.69085938 17.15460937 56.91796875 18.16796875 C57.45848924 20.58856051 57.9852777 23.01131513 58.5 25.4375 C58.83 25.4375 59.16 25.4375 59.5 25.4375 C59.61069824 24.85258789 59.72139648 24.26767578 59.83544922 23.66503906 C60.34251637 21.00465137 60.85865979 18.34610281 61.375 15.6875 C61.54902344 14.76710938 61.72304687 13.84671875 61.90234375 12.8984375 C62.07636719 12.00898438 62.25039062 11.11953125 62.4296875 10.203125 C62.66534424 8.97770996 62.66534424 8.97770996 62.90576172 7.72753906 C63.51252783 5.38922102 64.25844787 3.5080904 65.5 1.4375 C69.26154568 -0.44327284 73.79823274 0.20947355 77.9375 0.1875 C79.38866211 0.1565625 79.38866211 0.1565625 80.86914062 0.125 C82.26229492 0.11726563 82.26229492 0.11726563 83.68359375 0.109375 C84.96061157 0.09535645 84.96061157 0.09535645 86.26342773 0.08105469 C89.05070303 0.52526623 89.78966494 1.22617231 91.5 3.4375 C92.22338854 11.08368268 89.14930187 19.41444679 87.19140625 26.70703125 C86.86462387 27.94619797 86.53784149 29.18536469 86.20115662 30.46208191 C85.51403829 33.06608026 84.8219316 35.66867873 84.12573242 38.27026367 C83.2362279 41.59466419 82.35631867 44.92150868 81.47972202 48.24933338 C80.6373701 51.44456526 79.78937289 54.63828458 78.94140625 57.83203125 C78.62675919 59.0216597 78.31211212 60.21128815 77.9879303 61.43696594 C77.69099777 62.54549423 77.39406525 63.65402252 77.08813477 64.79614258 C76.69961082 66.25314323 76.69961082 66.25314323 76.30323792 67.73957825 C74.14743444 74.98050771 74.14743444 74.98050771 71.6640625 76.73339844 C69.28476925 77.5075277 67.37517799 77.69599909 64.875 77.703125 C63.56789062 77.70699219 63.56789062 77.70699219 62.234375 77.7109375 C61.33203125 77.70320313 60.4296875 77.69546875 59.5 77.6875 C58.59765625 77.69523437 57.6953125 77.70296875 56.765625 77.7109375 C55.89421875 77.70835938 55.0228125 77.70578125 54.125 77.703125 C53.33351563 77.70086914 52.54203125 77.69861328 51.7265625 77.69628906 C49.20038494 77.40267632 47.62731278 76.82692994 45.5 75.4375 C41.90933692 67.95695191 40.42231474 59.4780449 38.5 51.4375 C38.34442627 52.11852783 38.18885254 52.79955566 38.02856445 53.5012207 C37.31071434 56.58942505 36.5620472 59.66934269 35.8125 62.75 C35.56822266 63.82185547 35.32394531 64.89371094 35.07226562 65.99804688 C34.81767578 67.02607422 34.56308594 68.05410156 34.30078125 69.11328125 C33.96300659 70.5350769 33.96300659 70.5350769 33.6184082 71.9855957 C32.15351101 75.19711338 30.69462483 76.0204449 27.5 77.4375 C25.15991211 77.80981445 25.15991211 77.80981445 22.77734375 77.80078125 C21.90916016 77.80013672 21.04097656 77.79949219 20.14648438 77.79882812 C18.80553711 77.7746582 18.80553711 77.7746582 17.4375 77.75 C16.53966797 77.75322266 15.64183594 77.75644531 14.71679688 77.75976562 C6.63643805 77.69368091 6.63643805 77.69368091 3.5 75.4375 C2.41455078 73.08398438 2.41455078 73.08398438 1.5703125 70.03125 C1.24063477 68.85949219 0.91095703 67.68773438 0.57128906 66.48046875 C0.21283212 65.13317376 -0.14418672 63.78549558 -0.5 62.4375 C-0.9064375 60.93355644 -1.31301894 59.42965178 -1.71972656 57.92578125 C-2.82746316 53.79322222 -3.90194682 49.65272288 -4.96435547 45.50830078 C-5.62437884 42.93991716 -6.29440684 40.37427599 -6.96484375 37.80859375 C-9.0957529 29.56930351 -11.01871074 21.44147101 -12.15454102 12.99853516 C-12.37084359 11.39499166 -12.62700999 9.79577269 -12.94116211 8.20849609 C-13.3125 6.3125 -13.3125 6.3125 -13.5 3.4375 C-10.19729582 -1.15117089 -5.1321462 -0.03778689 0 0 Z " fill="#F84B1A" transform="translate(13.5,0.5625)"/>
<path d="M0 0 C1.13888672 0.00193359 1.13888672 0.00193359 2.30078125 0.00390625 C9.35864977 0.11515111 9.35864977 0.11515111 12.5 2.375 C13.70272819 4.78045638 13.60071472 6.32496953 13.5625 9 C13.55347656 9.81726562 13.54445313 10.63453125 13.53515625 11.4765625 C13.52355469 12.10304688 13.51195312 12.72953125 13.5 13.375 C15.15 13.375 16.8 13.375 18.5 13.375 C18.5 21.295 18.5 29.215 18.5 37.375 C16.85 37.375 15.2 37.375 13.5 37.375 C13.995 44.8 13.995 44.8 14.5 52.375 C16.48 52.87 16.48 52.87 18.5 53.375 C18.5 61.295 18.5 69.215 18.5 77.375 C9.07789003 77.67254031 1.90902301 77.50021329 -6.3125 72.75 C-12.52633075 66.00355519 -13.127646 58.12754964 -13.25 49.3125 C-13.27964844 48.25611328 -13.30929687 47.19972656 -13.33984375 46.11132812 C-13.40985776 43.53247862 -13.46288954 40.95449697 -13.5 38.375 C-14.49 39.035 -15.48 39.695 -16.5 40.375 C-18.36187826 40.7926941 -20.23993285 41.14155938 -22.125 41.4375 C-25.62137088 41.74008826 -25.62137088 41.74008826 -28.5 43.375 C-28.63388953 45.23005733 -28.70355152 47.08982254 -28.74609375 48.94921875 C-28.77896484 50.09197266 -28.81183594 51.23472656 -28.84570312 52.41210938 C-28.90640779 54.82608846 -28.96375548 57.24015454 -29.01757812 59.65429688 C-29.05173828 60.80349609 -29.08589844 61.95269531 -29.12109375 63.13671875 C-29.1461499 64.18819092 -29.17120605 65.23966309 -29.19702148 66.32299805 C-29.52605288 69.6374392 -30.19601574 72.31048655 -31.5 75.375 C-35.55355318 78.07736878 -38.67905256 77.74247676 -43.4375 77.75 C-44.24896484 77.77449219 -45.06042969 77.79898438 -45.89648438 77.82421875 C-46.68216797 77.82808594 -47.46785156 77.83195312 -48.27734375 77.8359375 C-49.34843384 77.84826416 -49.34843384 77.84826416 -50.44116211 77.86083984 C-53.4361883 77.15408043 -54.56989533 75.73642719 -56.5 73.375 C-56.9699707 70.75022888 -56.9699707 70.75022888 -56.92578125 67.73608398 C-56.91836914 66.60488632 -56.91095703 65.47368866 -56.90332031 64.30821228 C-56.87334961 63.09146317 -56.84337891 61.87471405 -56.8125 60.62109375 C-56.79413086 59.368694 -56.77576172 58.11629425 -56.75683594 56.82594299 C-56.71261645 54.17820827 -56.66022374 51.53214066 -56.59423828 48.88500977 C-56.51083606 45.49331958 -56.46345808 42.10225726 -56.42692566 38.70977688 C-56.38721738 35.47149527 -56.31732811 32.23390113 -56.25 28.99609375 C-56.22933472 27.16793373 -56.22933472 27.16793373 -56.20825195 25.30284119 C-56.17562256 24.17479568 -56.14299316 23.04675018 -56.109375 21.88452148 C-56.08842773 20.89064926 -56.06748047 19.89677704 -56.04589844 18.87278748 C-55.5 16.375 -55.5 16.375 -53.69189453 14.55335999 C-50.42703534 12.79817543 -47.2340841 12.97972284 -43.625 13.0625 C-42.58279297 13.05766602 -42.58279297 13.05766602 -41.51953125 13.05273438 C-38.15945183 13.08753746 -35.47892798 13.3825478 -32.3046875 14.51953125 C-28.80977114 15.58552942 -27.75626168 14.83905564 -24.5 13.375 C-21.38671875 13.1796875 -21.38671875 13.1796875 -18.1875 13.25 C-17.11886719 13.26804687 -16.05023438 13.28609375 -14.94921875 13.3046875 C-14.14097656 13.32789063 -13.33273437 13.35109375 -12.5 13.375 C-12.54640625 12.77171875 -12.5928125 12.1684375 -12.640625 11.546875 C-12.69476563 10.34804688 -12.69476563 10.34804688 -12.75 9.125 C-12.79640625 8.33609375 -12.8428125 7.5471875 -12.890625 6.734375 C-12.5 4.375 -12.5 4.375 -11.015625 2.1015625 C-7.45432744 -0.3426821 -4.15843962 -0.13414321 0 0 Z " fill="#080808" transform="translate(477.5,0.625)"/>
<path d="M0 0 C5.61 0 11.22 0 17 0 C17.33 1.98 17.66 3.96 18 6 C18.763125 5.195625 19.52625 4.39125 20.3125 3.5625 C25.09683937 -0.99931196 30.16262252 -0.33850286 36.48046875 -0.2734375 C42.99070983 0.23235259 46.93073165 2.57891083 51.3125 7.3125 C56.19293881 13.08791899 57.5414286 19.03896027 57.4375 26.375 C57.42992676 27.12378418 57.42235352 27.87256836 57.41455078 28.64404297 C57.15958038 37.2069542 54.36154226 43.25331753 48.578125 49.5625 C43.32252824 54.34977625 37.06675549 55.30834818 30.24609375 55.21875 C24.67348412 54.67602628 21.85875816 51.85875816 18 48 C17.67 58.56 17.34 69.12 17 80 C11.39 80 5.78 80 0 80 C0 53.6 0 27.2 0 0 Z M27.75 20.9375 C25.13603908 24.01823965 24.69010812 27.01014207 25 31 C26.28264098 34.18775608 26.28264098 34.18775608 29 36 C32.63239813 36.1716367 32.63239813 36.1716367 36 35 C38.53587563 31.19618656 38.59592661 28.46013825 38 24 C36.45908006 21.48586747 35.32725296 21.11747542 32.5625 20.125 C29.98893202 19.81574832 29.98893202 19.81574832 27.75 20.9375 Z " fill="#F9F9F9" transform="translate(298,18)"/>
<path d="M0 0 C5.94 0 11.88 0 18 0 C18.33 7.59 18.66 15.18 19 23 C20.65 21.68 22.3 20.36 24 19 C29.09964815 16.45017592 37.09655388 17.24455791 42.4921875 18.6484375 C49.25871513 21.72891895 53.61196291 27.26226131 56.39575195 34.05297852 C57.45205372 37.45661754 57.48833248 40.77183797 57.4375 44.3125 C57.42920166 45.05870605 57.42090332 45.80491211 57.41235352 46.57373047 C57.16499359 54.68819245 55.25488264 60.8810905 49.6875 66.9375 C43.84557625 72.17423504 38.29314071 73.52133438 30.5859375 73.2890625 C25.04249847 72.66940315 21.63484512 70.05425033 18 66 C17.67 67.98 17.34 69.96 17 72 C11.39 72 5.78 72 0 72 C0 48.24 0 24.48 0 0 Z M27.75 39.4375 C25.51004206 42.71743841 25.55985141 44.99188823 25.56640625 48.87890625 C26.10417623 51.50961886 26.82545772 52.44675551 29 54 C34.04565002 53.80862516 34.04565002 53.80862516 38 51 C38.7182079 46.67405008 38.74976887 43.09787584 36.25 39.4375 C33.04937035 37.39265328 30.95062965 37.39265328 27.75 39.4375 Z " fill="#F7F7F7" transform="translate(164,0)"/>
<path d="M0 0 C1.54977539 -0.0609082 1.54977539 -0.0609082 3.13085938 -0.12304688 C10.55980381 -0.15640326 10.55980381 -0.15640326 13.67626953 2.17578125 C15.21236279 3.94470109 16.46801176 5.69006694 17.6875 7.6875 C18.43652275 8.81315089 19.18644612 9.9382033 19.9375 11.0625 C20.515 11.92875 21.0925 12.795 21.6875 13.6875 C22.3475 14.0175 23.0075 14.3475 23.6875 14.6875 C23.914375 13.98625 24.14125 13.285 24.375 12.5625 C25.9892001 9.02663312 27.53183665 6.00941381 30.6875 3.6875 C34.15376699 2.95264695 37.47663526 3.11827919 41 3.3125 C42.39702148 3.35310547 42.39702148 3.35310547 43.82226562 3.39453125 C46.11306872 3.4650175 48.39907563 3.56345754 50.6875 3.6875 C49.03668438 7.15952793 47.07984254 10.38925836 45.0625 13.66015625 C44.71493652 14.22447861 44.36737305 14.78880096 44.00927734 15.370224 C43.2771517 16.55825359 42.54422598 17.74579046 41.81054688 18.93286133 C40.68966781 20.74649238 39.57118331 22.56158208 38.453125 24.37695312 C33.01648915 33.19401627 33.01648915 33.19401627 30.6875 36.6875 C30.91309474 41.30477126 33.33187737 44.56212779 35.90625 48.23046875 C36.32418823 48.84013992 36.74212646 49.4498111 37.17272949 50.07795715 C38.50332866 52.01571283 39.84499445 53.94547921 41.1875 55.875 C42.52754246 57.81683636 43.86529678 59.76022767 45.20227051 61.70417786 C46.03353619 62.91108548 46.86704311 64.11645312 47.70300293 65.32011414 C50.58046474 69.47342948 50.58046474 69.47342948 51.6875 71.6875 C34.11612619 73.48229033 34.11612619 73.48229033 28.75390625 69.51953125 C26.73280448 66.66319834 25.18268012 63.84767294 23.6875 60.6875 C22.70583831 59.11341405 21.7081675 57.54907847 20.6875 56 C20.0275 54.906875 19.3675 53.81375 18.6875 52.6875 C17.80919727 53.97692316 16.93512377 55.26922682 16.0625 56.5625 C15.21365234 57.77873047 15.21365234 57.77873047 14.34765625 59.01953125 C12.60668348 61.62473368 12.60668348 61.62473368 11.62109375 64.51171875 C10.29451212 67.75190595 9.44356236 69.48174796 6.6875 71.6875 C0.4594075 72.96120008 -6.03382386 72.24698599 -12.3125 71.6875 C-12.72864363 67.20054016 -11.59402103 65.00031557 -9.1015625 61.30859375 C-8.43382812 60.30505859 -7.76609375 59.30152344 -7.078125 58.26757812 C-6.37171875 57.23052734 -5.6653125 56.19347656 -4.9375 55.125 C-3.55301399 53.0623202 -2.17013403 50.99856128 -0.7890625 48.93359375 C-0.17111816 48.02279053 0.44682617 47.1119873 1.08349609 46.17358398 C3.83926882 42.30418459 3.83926882 42.30418459 4.54882812 37.80639648 C3.35177471 34.86160438 1.68622954 32.41848615 -0.09375 29.78515625 C-0.86077758 28.63613479 -1.62770148 27.48704411 -2.39453125 26.33789062 C-3.6033925 24.54129979 -4.81485425 22.7465225 -6.02880859 20.95336914 C-7.20314655 19.21428963 -8.36755721 17.46886995 -9.53125 15.72265625 C-10.5821582 14.16623413 -10.5821582 14.16623413 -11.65429688 12.57836914 C-13.27003515 9.76153214 -14.20851767 7.92661637 -14.3125 4.6875 C-11.3858356 -1.26234034 -5.84219675 -0.01081221 0 0 Z " fill="#F74B1B" transform="translate(239.3125,0.3125)"/>
<path d="M0 0 C7.95965571 8.42787075 8.125 14.16517168 8.125 26.25 C-4.085 26.25 -16.295 26.25 -28.875 26.25 C-26.04166667 33.91666667 -26.04166667 33.91666667 -22.875 35.25 C-21.16797265 35.31996014 -19.45831997 35.33440154 -17.75 35.3125 C-16.83992188 35.30347656 -15.92984375 35.29445312 -14.9921875 35.28515625 C-14.29351562 35.27355469 -13.59484375 35.26195312 -12.875 35.25 C-12.215 33.93 -11.555 32.61 -10.875 31.25 C-4.935 31.25 1.005 31.25 7.125 31.25 C5.97228423 37.01357884 4.26766821 40.14875847 0.125 44.25 C-8.16452488 49.48887675 -15.76875607 51.41478284 -25.47265625 49.82421875 C-32.46164702 48.06346837 -37.96800901 44.67778993 -41.97167969 38.57958984 C-45.04567193 33.14340535 -45.48710433 28.41573813 -45.375 22.25 C-45.39046875 21.39921875 -45.4059375 20.5484375 -45.421875 19.671875 C-45.37856939 12.61306001 -43.57533542 7.45523007 -39.015625 2.04296875 C-26.98679722 -8.17159368 -13.49387327 -8.21366199 0 0 Z " fill="#F9F9F9" transform="translate(405.875,22.75)"/>
<path d="M0 0 C9.01051622 -0.40868432 15.83865082 0.67718852 22.64453125 6.890625 C24.18923939 8.59018163 25.50915641 10.31681119 26.8046875 12.2109375 C27.4234375 13.0771875 28.0421875 13.9434375 28.6796875 14.8359375 C29.8046875 18.2109375 29.8046875 18.2109375 29.8046875 31.2109375 C17.5946875 31.2109375 5.3846875 31.2109375 -7.1953125 31.2109375 C-5.01471417 38.05919645 -5.01471417 38.05919645 -1.1953125 40.2109375 C2.26254765 40.71101544 2.26254765 40.71101544 5.8046875 40.2109375 C6.33707031 39.54835937 6.86945313 38.88578125 7.41796875 38.203125 C11.13975492 35.09656044 14.87246171 35.7811179 19.5546875 35.9609375 C20.44285156 35.97898438 21.33101562 35.99703125 22.24609375 36.015625 C24.43339598 36.06266376 26.61848566 36.12836741 28.8046875 36.2109375 C26.85739841 42.84684499 23.57738392 47.79945206 17.671875 51.57421875 C10.19551259 55.36757606 2.52555679 56.74880559 -5.73828125 54.52734375 C-13.73650816 51.20966271 -19.69159357 46.20499707 -23.30859375 38.25 C-25.60166588 30.3909246 -25.59915766 21.25515933 -22.2578125 13.7109375 C-18.69356896 7.74360625 -13.74717698 2.32524793 -7.0078125 0.2109375 C-4.67081702 0.2109375 -2.33191982 0.15394092 0 0 Z " fill="#F9F9F9" transform="translate(126.1953125,17.7890625)"/>
<path d="M0 0 C5.61 0 11.22 0 17 0 C17 4.29 17 8.58 17 13 C20.63 13 24.26 13 28 13 C28 17.62 28 22.24 28 27 C24.37 27 20.74 27 17 27 C17.14010035 30.97944615 17.28679559 34.95845381 17.4375 38.9375 C17.47681641 40.07380859 17.51613281 41.21011719 17.55664062 42.38085938 C17.59853516 43.46044922 17.64042969 44.54003906 17.68359375 45.65234375 C17.72025146 46.65257568 17.75690918 47.65280762 17.79467773 48.68334961 C17.74671841 50.96069188 17.74671841 50.96069188 19 52 C21.98889359 52.45765667 24.98969648 52.70320951 28 53 C28 57.62 28 62.24 28 67 C10.72453241 67.80978754 10.72453241 67.80978754 5 63 C0.71795638 57.72979246 -0.13151708 53.77734788 -0.09765625 47.140625 C-0.09282227 45.46806641 -0.09282227 45.46806641 -0.08789062 43.76171875 C-0.07951172 42.60285156 -0.07113281 41.44398437 -0.0625 40.25 C-0.05798828 39.07566406 -0.05347656 37.90132812 -0.04882812 36.69140625 C-0.03705094 33.79421928 -0.02060326 30.89713546 0 28 C-0.804375 28.020625 -1.60875 28.04125 -2.4375 28.0625 C-5 28 -5 28 -6 27 C-6.09909302 24.66839945 -6.12970504 22.33370058 -6.125 20 C-6.12757813 18.72125 -6.13015625 17.4425 -6.1328125 16.125 C-6 13 -6 13 -5 12 C-3.35 12 -1.7 12 0 12 C0 8.04 0 4.08 0 0 Z " fill="#F8F8F8" transform="translate(466,5)"/>
<path d="M0 0 C1.45116211 -0.0309375 1.45116211 -0.0309375 2.93164062 -0.0625 C4.32479492 -0.07023437 4.32479492 -0.07023437 5.74609375 -0.078125 C7.02311157 -0.09214355 7.02311157 -0.09214355 8.32592773 -0.10644531 C11.11320303 0.33776623 11.85216494 1.03867231 13.5625 3.25 C14.28588854 10.89618268 11.21180187 19.22694679 9.25390625 26.51953125 C8.92712387 27.75869797 8.60034149 28.99786469 8.26365662 30.27458191 C7.57653829 32.87858026 6.8844316 35.48117873 6.18823242 38.08276367 C5.2987279 41.40716419 4.41881867 44.73400868 3.54222202 48.06183338 C2.6998701 51.25706526 1.85187289 54.45078458 1.00390625 57.64453125 C0.68925919 58.8341597 0.37461212 60.02378815 0.0504303 61.24946594 C-0.24650223 62.35799423 -0.54343475 63.46652252 -0.84936523 64.60864258 C-1.23788918 66.06564323 -1.23788918 66.06564323 -1.63426208 67.55207825 C-3.79006556 74.79300771 -3.79006556 74.79300771 -6.2734375 76.54589844 C-8.65273075 77.3200277 -10.56232201 77.50849909 -13.0625 77.515625 C-14.36960938 77.51949219 -14.36960938 77.51949219 -15.703125 77.5234375 C-16.60546875 77.51570313 -17.5078125 77.50796875 -18.4375 77.5 C-19.33984375 77.50773437 -20.2421875 77.51546875 -21.171875 77.5234375 C-22.04328125 77.52085938 -22.9146875 77.51828125 -23.8125 77.515625 C-24.60398438 77.51336914 -25.39546875 77.51111328 -26.2109375 77.50878906 C-28.73711506 77.21517632 -30.31018722 76.63942994 -32.4375 75.25 C-36.02816308 67.76945191 -37.51518526 59.2905449 -39.4375 51.25 C-39.59307373 51.93102783 -39.74864746 52.61205566 -39.90893555 53.3137207 C-40.62678566 56.40192505 -41.3754528 59.48184269 -42.125 62.5625 C-42.36927734 63.63435547 -42.61355469 64.70621094 -42.86523438 65.81054688 C-43.11982422 66.83857422 -43.37441406 67.86660156 -43.63671875 68.92578125 C-43.97449341 70.3475769 -43.97449341 70.3475769 -44.3190918 71.7980957 C-45.78398899 75.00961338 -47.24287517 75.8329449 -50.4375 77.25 C-52.77758789 77.62231445 -52.77758789 77.62231445 -55.16015625 77.61328125 C-56.02833984 77.61263672 -56.89652344 77.61199219 -57.79101562 77.61132812 C-59.13196289 77.5871582 -59.13196289 77.5871582 -60.5 77.5625 C-61.39783203 77.56572266 -62.29566406 77.56894531 -63.22070312 77.57226562 C-71.29896888 77.50619802 -71.29896888 77.50619802 -74.4375 75.25 C-75.51855469 72.9074707 -75.51855469 72.9074707 -76.359375 69.86328125 C-76.68873047 68.6923291 -77.01808594 67.52137695 -77.35742188 66.31494141 C-77.71839162 64.96021204 -78.07835943 63.60521543 -78.4375 62.25 C-78.85438032 60.71911911 -79.27171819 59.18836276 -79.68945312 57.65771484 C-80.82538079 53.46106979 -81.92543559 49.25588686 -83.01171875 45.04614258 C-83.69146712 42.42218619 -84.38475904 39.80202682 -85.078125 37.18164062 C-85.51646246 35.48980009 -85.95399142 33.79774983 -86.390625 32.10546875 C-86.59681458 31.33446335 -86.80300415 30.56345795 -87.01544189 29.76908875 C-88.27754629 24.79440363 -88.62802639 20.38294081 -88.4375 15.25 C-86.78044789 18.27461656 -85.87509957 21.11984511 -85.10546875 24.4765625 C-84.86666992 25.50015869 -84.62787109 26.52375488 -84.38183594 27.57836914 C-84.13208008 28.66625732 -83.88232422 29.75414551 -83.625 30.875 C-81.45931084 40.11923482 -79.12745265 49.28271751 -76.515625 58.41015625 C-75.4133112 62.3361507 -74.42651401 66.29394395 -73.4375 70.25 C-66.8375 70.25 -60.2375 70.25 -53.4375 70.25 C-50.1375 56.72 -46.8375 43.19 -43.4375 29.25 C-42.7775 29.25 -42.1175 29.25 -41.4375 29.25 C-41.23592285 30.11689453 -41.0343457 30.98378906 -40.82666016 31.87695312 C-40.07050979 35.12740075 -39.31376845 38.37770966 -38.55664062 41.62792969 C-38.23056137 43.0282661 -37.90471017 44.42865564 -37.57910156 45.82910156 C-37.10803848 47.85496183 -36.63615803 49.8806301 -36.1640625 51.90625 C-35.86532227 53.18886719 -35.56658203 54.47148438 -35.25878906 55.79296875 C-34.60880852 58.52891538 -33.92607116 61.24947633 -33.2109375 63.96875 C-32.4375 67.25 -32.4375 67.25 -32.4375 71.25 C-25.5075 71.25 -18.5775 71.25 -11.4375 71.25 C-10.7775 68.28 -10.1175 65.31 -9.4375 62.25 C-7.38386553 53.18121922 -5.20215707 44.20113537 -2.578125 35.27734375 C-0.7494778 28.94523722 0.83616335 22.54365825 2.45654297 16.15576172 C2.70033691 15.20588379 2.94413086 14.25600586 3.1953125 13.27734375 C3.41074707 12.42906006 3.62618164 11.58077637 3.84814453 10.70678711 C4.58668323 8.16682987 5.5801157 5.70596076 6.5625 3.25 C0.2925 3.25 -5.9775 3.25 -12.4375 3.25 C-12.4375 2.59 -12.4375 1.93 -12.4375 1.25 C-8.67595432 -0.63077284 -4.13926726 0.02197355 0 0 Z " fill="#020202" transform="translate(91.4375,0.75)"/>
<path d="M0 0 C5.94 0 11.88 0 18 0 C18 2.31 18 4.62 18 7 C18.66 7 19.32 7 20 7 C20.3403125 6.1028125 20.3403125 6.1028125 20.6875 5.1875 C22.42429529 2.29284118 23.9183036 1.36964285 27 0 C29.31 0 31.62 0 34 0 C34 5.61 34 11.22 34 17 C32.618125 17.103125 31.23625 17.20625 29.8125 17.3125 C25.86623736 17.75924671 23.14491808 18.42688521 20 21 C17.71818495 24.48484371 17.69389307 27.63206332 17.5859375 31.734375 C17.54726563 33.02988281 17.50859375 34.32539062 17.46875 35.66015625 C17.43729733 37.02343284 17.40604993 38.38671418 17.375 39.75 C17.33679531 41.12893028 17.29774213 42.50783734 17.2578125 43.88671875 C17.16352242 47.25758922 17.0806716 50.62877612 17 54 C11.39 54 5.78 54 0 54 C0 36.18 0 18.36 0 0 Z " fill="#F6F6F6" transform="translate(422,18)"/>
<path d="M0 0 C3.4372166 -0.11604679 6.87393086 -0.18719508 10.3125 -0.25 C11.28896484 -0.28351562 12.26542969 -0.31703125 13.27148438 -0.3515625 C14.20927734 -0.36445313 15.14707031 -0.37734375 16.11328125 -0.390625 C16.97735596 -0.41157227 17.84143066 -0.43251953 18.73168945 -0.45410156 C21 0 21 0 22.73242188 1.7512207 C24.01020815 4.01811002 24.64888049 5.83072814 25.16796875 8.37109375 C25.33876953 9.19287109 25.50957031 10.01464844 25.68554688 10.86132812 C25.85119141 11.71146484 26.01683594 12.56160156 26.1875 13.4375 C26.36474609 14.28376953 26.54199219 15.13003906 26.72460938 16.00195312 C27.54516367 20.04769768 28.24718802 23.84894604 28 28 C28.66 28 29.32 28 30 28 C30.12632813 26.85015625 30.25265625 25.7003125 30.3828125 24.515625 C30.92754142 20.17690692 31.81904245 15.98995169 32.875 11.75 C33.03613281 11.05648438 33.19726562 10.36296875 33.36328125 9.6484375 C34.31722573 5.78829005 35.22881958 2.87969401 38 0 C40.29663086 -0.51757812 40.29663086 -0.51757812 42.96484375 -0.53125 C43.92970703 -0.53640625 44.89457031 -0.5415625 45.88867188 -0.546875 C46.89478516 -0.53140625 47.90089844 -0.5159375 48.9375 -0.5 C50.44086914 -0.52320312 50.44086914 -0.52320312 51.97460938 -0.546875 C59.05644654 -0.50908001 59.05644654 -0.50908001 62.51953125 1.359375 C64.88430854 5.57728911 65.75431355 10.04710361 66.75 14.75 C66.97042969 15.73355469 67.19085938 16.71710937 67.41796875 17.73046875 C67.95848924 20.15106051 68.4852777 22.57381513 69 25 C69.66 25 70.32 25 71 25 C70.48244596 33.44430279 69.5439119 41.68086307 68 50 C67.34 50 66.68 50 66 50 C64.57019282 43.95069877 63.14618593 37.90007276 61.72753906 31.84814453 C61.24410671 29.7895014 60.75909092 27.73122945 60.27246094 25.67333984 C59.5733046 22.71548049 58.87985182 19.75633347 58.1875 16.796875 C57.96876221 15.87694763 57.75002441 14.95702026 57.5246582 14.00921631 C57.32445068 13.1486261 57.12424316 12.28803589 56.91796875 11.40136719 C56.65149536 10.26885529 56.65149536 10.26885529 56.37963867 9.11346436 C56 7 56 7 56 3 C49.73 3 43.46 3 37 3 C36.67 5.64 36.34 8.28 36 11 C35.45106961 13.9407625 34.7575593 16.8405696 34.0625 19.75 C33.80823242 20.86181641 33.80823242 20.86181641 33.54882812 21.99609375 C32.24448229 27.52096545 32.24448229 27.52096545 31.00219727 29.95507812 C29.92092943 32.16133864 29.41713763 34.14212104 28.9296875 36.546875 C28.66865234 37.81337891 28.66865234 37.81337891 28.40234375 39.10546875 C28.14130859 40.41451172 28.14130859 40.41451172 27.875 41.75 C27.69324219 42.63816406 27.51148437 43.52632812 27.32421875 44.44140625 C26.87777463 46.62663271 26.43655434 48.81278017 26 51 C24.53205808 48.28348051 23.62533708 45.85757928 23.03857422 42.82983398 C22.79855179 41.61353554 22.79855179 41.61353554 22.55368042 40.37266541 C22.38901276 39.50589676 22.22434509 38.63912811 22.0546875 37.74609375 C21.87994904 36.84883072 21.70521057 35.95156769 21.525177 35.02711487 C21.1577208 33.13393005 20.79310976 31.24019108 20.43115234 29.34594727 C19.87614548 26.44349041 19.31186487 23.54295386 18.74609375 20.64257812 C18.39007799 18.80218907 18.03459115 16.96169759 17.6796875 15.12109375 C17.42661331 13.81790443 17.42661331 13.81790443 17.16842651 12.48838806 C17.01471588 11.68067459 16.86100525 10.87296112 16.70263672 10.04077148 C16.56654999 9.33113754 16.43046326 8.6215036 16.29025269 7.8903656 C16 6 16 6 16 3 C10.72 3 5.44 3 0 3 C0 2.01 0 1.02 0 0 Z " fill="#090807" transform="translate(3,1)"/>
<path d="M0 0 C3.4372166 -0.11604679 6.87393086 -0.18719508 10.3125 -0.25 C11.28896484 -0.28351562 12.26542969 -0.31703125 13.27148438 -0.3515625 C14.20927734 -0.36445313 15.14707031 -0.37734375 16.11328125 -0.390625 C16.97735596 -0.41157227 17.84143066 -0.43251953 18.73168945 -0.45410156 C21 0 21 0 22.73242188 1.7512207 C24.01020815 4.01811002 24.64888049 5.83072814 25.16796875 8.37109375 C25.33876953 9.19287109 25.50957031 10.01464844 25.68554688 10.86132812 C25.85119141 11.71146484 26.01683594 12.56160156 26.1875 13.4375 C26.36474609 14.28376953 26.54199219 15.13003906 26.72460938 16.00195312 C27.54516367 20.04769768 28.24718802 23.84894604 28 28 C28.66 28 29.32 28 30 28 C30.33 26.68 30.66 25.36 31 24 C31.14440059 28.37139965 30.66280512 32.13130185 29.625 36.375 C29.21701172 38.06302734 29.21701172 38.06302734 28.80078125 39.78515625 C28.53652344 40.84605469 28.27226562 41.90695313 28 43 C27.78730469 43.86496094 27.57460938 44.72992188 27.35546875 45.62109375 C26.91077989 47.41584518 26.45671519 49.20827119 26 51 C24.53205808 48.28348051 23.62533708 45.85757928 23.03857422 42.82983398 C22.79855179 41.61353554 22.79855179 41.61353554 22.55368042 40.37266541 C22.38901276 39.50589676 22.22434509 38.63912811 22.0546875 37.74609375 C21.87994904 36.84883072 21.70521057 35.95156769 21.525177 35.02711487 C21.1577208 33.13393005 20.79310976 31.24019108 20.43115234 29.34594727 C19.87614548 26.44349041 19.31186487 23.54295386 18.74609375 20.64257812 C18.39007799 18.80218907 18.03459115 16.96169759 17.6796875 15.12109375 C17.42661331 13.81790443 17.42661331 13.81790443 17.16842651 12.48838806 C17.01471588 11.68067459 16.86100525 10.87296112 16.70263672 10.04077148 C16.56654999 9.33113754 16.43046326 8.6215036 16.29025269 7.8903656 C16 6 16 6 16 3 C10.72 3 5.44 3 0 3 C0 2.01 0 1.02 0 0 Z " fill="#020202" transform="translate(3,1)"/>
<path d="M0 0 C3.70390021 2.02666238 5.65363011 3.48044516 8 7 C9.0175168 13.76766987 8.00303159 18.51012811 4 24 C-0.01513965 26.67675977 -3.28066347 26.8128207 -8 26 C-11.72181887 23.22843275 -13.82389064 20.49059938 -15 16 C-15.46725516 11.71682772 -15.30749558 9.57106322 -13.25 5.75 C-9.10409254 0.68277978 -6.7443283 -0.81397066 0 0 Z M-4.25 7.4375 C-6.48995794 10.71743841 -6.44014859 12.99188823 -6.43359375 16.87890625 C-5.89582377 19.50961886 -5.17454228 20.44675551 -3 22 C2.04565002 21.80862516 2.04565002 21.80862516 6 19 C6.7182079 14.67405008 6.74976887 11.09787584 4.25 7.4375 C1.04937035 5.39265328 -1.04937035 5.39265328 -4.25 7.4375 Z " fill="#090909" transform="translate(196,32)"/>
<path d="M0 0 C3.62277154 1.77720868 5.49359307 3.07525692 7.4375 6.625 C8.20881859 11.25291153 8.19980678 15.44377171 7 20 C4.79315629 22.77270108 3.14508888 24.42745556 0 26 C-7.01971231 26.57538625 -7.01971231 26.57538625 -10.875 24.3125 C-14.66696224 20.18595286 -15.41438311 16.38761354 -15.25 10.921875 C-14.71715426 6.82562335 -12.54133163 4.55636862 -9.75 1.6875 C-6.15820003 -0.51655907 -4.1555869 -0.58324027 0 0 Z M-4.25 6.9375 C-6.86396092 10.01823965 -7.30989188 13.01014207 -7 17 C-5.71735902 20.18775608 -5.71735902 20.18775608 -3 22 C0.63239813 22.1716367 0.63239813 22.1716367 4 21 C6.53587563 17.19618656 6.59592661 14.46013825 6 10 C4.45908006 7.48586747 3.32725296 7.11747542 0.5625 6.125 C-2.01106798 5.81574832 -2.01106798 5.81574832 -4.25 6.9375 Z " fill="#080808" transform="translate(330,32)"/>
<path d="M0 0 C3.00336281 -0.09468157 6.00196168 -0.15495016 9.00683594 -0.17333984 C10.04453125 -0.21845703 11.08222656 -0.26357422 12.15136719 -0.31005859 C19.64372167 -0.37704005 19.64372167 -0.37704005 22.75 1.93554688 C24.28641056 3.70584055 25.53952147 5.45148289 26.75683594 7.45166016 C27.50567769 8.57743146 28.25558692 9.70249384 29.00683594 10.82666016 C29.58433594 11.69291016 30.16183594 12.55916016 30.75683594 13.45166016 C31.41683594 13.78166016 32.07683594 14.11166016 32.75683594 14.45166016 C33.02496094 13.68853516 33.29308594 12.92541016 33.56933594 12.13916016 C34.70107705 9.57785132 35.66906995 8.25473078 37.75683594 6.45166016 C36.09100674 12.6152282 32.87878308 17.93425672 29.75683594 23.45166016 C29.09683594 23.45166016 28.43683594 23.45166016 27.75683594 23.45166016 C26.53588867 21.92285156 26.53588867 21.92285156 25.19042969 19.80322266 C24.46243164 18.66626953 24.46243164 18.66626953 23.71972656 17.50634766 C23.21634766 16.70455078 22.71296875 15.90275391 22.19433594 15.07666016 C21.68708984 14.28259766 21.17984375 13.48853516 20.65722656 12.67041016 C16.96745803 6.87290433 16.96745803 6.87290433 15.75683594 4.45166016 C9.15683594 4.12166016 2.55683594 3.79166016 -4.24316406 3.45166016 C-2.24316406 0.45166016 -2.24316406 0.45166016 0 0 Z " fill="#020202" transform="translate(230.2431640625,0.54833984375)"/>
<path d="M0 0 C0.66 0 1.32 0 2 0 C2.29390625 0.79664063 2.29390625 0.79664063 2.59375 1.609375 C4.57567617 6.2908213 6.4948528 9.32614998 11.23046875 11.390625 C17.67788424 12.80923828 24.44269868 12.26825324 31 12 C31 14.31 31 16.62 31 19 C21.70921564 19.38771434 14.3219856 19.07492501 6.1875 14.375 C2.53378755 10.4081122 0 5.44562383 0 0 Z " fill="#010101" transform="translate(465,59)"/>
<path d="M0 0 C5.23237173 4.97849606 9.15764123 10.66570103 13.17749023 16.63818359 C14.44198373 18.50662524 15.73126013 20.35629775 17.02148438 22.20703125 C17.8271083 23.39736464 18.63120061 24.58873638 19.43359375 25.78125 C20.16634521 26.85439453 20.89909668 27.92753906 21.65405273 29.03320312 C23 32 23 32 22.37011719 34.64990234 C21.91797852 35.42543457 21.46583984 36.2009668 21 37 C20.6285083 37.64469238 20.2570166 38.28938477 19.87426758 38.95361328 C19.46845459 39.56962402 19.0626416 40.18563477 18.64453125 40.8203125 C18.18989502 41.51584229 17.73525879 42.21137207 17.2668457 42.92797852 C16.78691162 43.65299561 16.30697754 44.3780127 15.8125 45.125 C14.82258697 46.63650288 13.83300414 48.14822206 12.84375 49.66015625 C12.36035156 50.39637207 11.87695312 51.13258789 11.37890625 51.89111328 C8.54072062 56.23180865 5.773281 60.61764811 3 65 C2.67 64.01 2.34 63.02 2 62 C3.23168945 59.61157227 3.23168945 59.61157227 5.11328125 56.81640625 C5.78423828 55.80642578 6.45519531 54.79644531 7.14648438 53.75585938 C8.21866211 52.17514648 8.21866211 52.17514648 9.3125 50.5625 C10.70614257 48.48161665 12.09813825 46.39962913 13.48828125 44.31640625 C14.11259033 43.39287354 14.73689941 42.46934082 15.38012695 41.51782227 C18.14495672 37.63209458 18.14495672 37.63209458 18.86132812 33.11889648 C17.66427471 30.17410438 15.99872954 27.73098615 14.21875 25.09765625 C13.45172242 23.94863479 12.68479852 22.79954411 11.91796875 21.65039062 C10.7091075 19.85379979 9.49764575 18.0590225 8.28369141 16.26586914 C7.10935345 14.52678963 5.94494279 12.78136995 4.78125 11.03515625 C3.7303418 9.47873413 3.7303418 9.47873413 2.65820312 7.89086914 C1.08330611 5.14523375 0.3868665 3.11463354 0 0 Z " fill="#060606" transform="translate(225,5)"/>
<path d="M0 0 C2.63441089 1.4091035 3.9301648 2.72318128 6 5 C6 6.32 6 7.64 6 9 C-0.6 9 -7.2 9 -14 9 C-13 4 -13 4 -10.9375 1.6875 C-7.22778808 -0.4436111 -4.12996531 -0.94192191 0 0 Z " fill="#0F0F0F" transform="translate(133,31)"/>
<path d="M0 0 C2.9375 1.125 2.9375 1.125 5 3 C5.33 4.98 5.66 6.96 6 9 C-0.6 9 -7.2 9 -14 9 C-12 3 -12 3 -10.375 1.125 C-6.92554291 -0.50895336 -3.70569835 -0.52938548 0 0 Z " fill="#0E0E0E" transform="translate(391,31)"/>
<path d="M0 0 C6.6 0 13.2 0 20 0 C19.67 0.66 19.34 1.32 19 2 C13.39 2 7.78 2 2 2 C1.01 7.61 0.02 13.22 -1 19 C-1.66 19 -2.32 19 -3 19 C-3.33 19.99 -3.66 20.98 -4 22 C-3.5112925 14.38290378 -1.97159948 7.37206762 0 0 Z " fill="#5D4037" transform="translate(78,4)"/>
<path d="M0 0 C5.94 0.33 11.88 0.66 18 1 C18 1.33 18 1.66 18 2 C12.39 2 6.78 2 1 2 C1.66 5.63 2.32 9.26 3 13 C0.46800028 10.46800028 -0.11946497 8.45440665 -1 5 C-0.67 3.35 -0.34 1.7 0 0 Z " fill="#A67B6F" transform="translate(1,3)"/>
</svg>
